<mxfile host="app.diagrams.net" modified="2023-10-03T12:05:53.823Z" agent="Mozilla/5.0 (Windows NT 10.0; Win64; x64) AppleWebKit/537.36 (KHTML, like Gecko) Chrome/117.0.0.0 Safari/537.36" etag="YWNW9YfJNhuw4eKR8DSv" version="22.0.2" type="github" pages="2">
  <diagram id="C5RBs43oDa-KdzZeNtuy" name="Regis Combo">
    <mxGraphModel dx="653" dy="395" grid="1" gridSize="10" guides="1" tooltips="1" connect="1" arrows="1" fold="1" page="1" pageScale="1" pageWidth="827" pageHeight="1169" math="0" shadow="0">
      <root>
        <mxCell id="WIyWlLk6GJQsqaUBKTNV-0" />
        <mxCell id="WIyWlLk6GJQsqaUBKTNV-1" parent="WIyWlLk6GJQsqaUBKTNV-0" />
        <mxCell id="WIyWlLk6GJQsqaUBKTNV-2" value="" style="rounded=0;html=1;jettySize=auto;orthogonalLoop=1;fontSize=11;endArrow=block;endFill=0;endSize=8;strokeWidth=1;shadow=0;labelBackgroundColor=none;edgeStyle=orthogonalEdgeStyle;" parent="WIyWlLk6GJQsqaUBKTNV-1" source="WIyWlLk6GJQsqaUBKTNV-3" target="WIyWlLk6GJQsqaUBKTNV-6" edge="1">
          <mxGeometry relative="1" as="geometry" />
        </mxCell>
        <mxCell id="WIyWlLk6GJQsqaUBKTNV-3" value="Get Combo theo CIF vÃ  Status &amp;lt;&amp;gt; C" style="rounded=1;whiteSpace=wrap;html=1;fontSize=12;glass=0;strokeWidth=1;shadow=0;" parent="WIyWlLk6GJQsqaUBKTNV-1" vertex="1">
          <mxGeometry x="63" y="80" width="120" height="40" as="geometry" />
        </mxCell>
        <mxCell id="qCqNb9l00TlPPFiWLqJM-10" style="edgeStyle=orthogonalEdgeStyle;rounded=0;orthogonalLoop=1;jettySize=auto;html=1;entryX=0;entryY=0.5;entryDx=0;entryDy=0;" edge="1" parent="WIyWlLk6GJQsqaUBKTNV-1" source="WIyWlLk6GJQsqaUBKTNV-6" target="qCqNb9l00TlPPFiWLqJM-9">
          <mxGeometry relative="1" as="geometry" />
        </mxCell>
        <mxCell id="qCqNb9l00TlPPFiWLqJM-12" value="No" style="edgeLabel;html=1;align=center;verticalAlign=middle;resizable=0;points=[];" vertex="1" connectable="0" parent="qCqNb9l00TlPPFiWLqJM-10">
          <mxGeometry x="-0.2143" y="1" relative="1" as="geometry">
            <mxPoint y="1" as="offset" />
          </mxGeometry>
        </mxCell>
        <mxCell id="qCqNb9l00TlPPFiWLqJM-13" style="edgeStyle=orthogonalEdgeStyle;rounded=0;orthogonalLoop=1;jettySize=auto;html=1;exitX=0.5;exitY=1;exitDx=0;exitDy=0;entryX=0.5;entryY=0;entryDx=0;entryDy=0;" edge="1" parent="WIyWlLk6GJQsqaUBKTNV-1" source="WIyWlLk6GJQsqaUBKTNV-6" target="WIyWlLk6GJQsqaUBKTNV-12">
          <mxGeometry relative="1" as="geometry" />
        </mxCell>
        <mxCell id="qCqNb9l00TlPPFiWLqJM-14" value="Yes" style="edgeLabel;html=1;align=center;verticalAlign=middle;resizable=0;points=[];" vertex="1" connectable="0" parent="qCqNb9l00TlPPFiWLqJM-13">
          <mxGeometry x="-0.2286" y="-2" relative="1" as="geometry">
            <mxPoint as="offset" />
          </mxGeometry>
        </mxCell>
        <mxCell id="WIyWlLk6GJQsqaUBKTNV-6" value="Count Row = 0" style="rhombus;whiteSpace=wrap;html=1;shadow=0;fontFamily=Helvetica;fontSize=12;align=center;strokeWidth=1;spacing=6;spacingTop=-4;" parent="WIyWlLk6GJQsqaUBKTNV-1" vertex="1">
          <mxGeometry x="73" y="175" width="100" height="55" as="geometry" />
        </mxCell>
        <mxCell id="qCqNb9l00TlPPFiWLqJM-19" style="edgeStyle=orthogonalEdgeStyle;rounded=0;orthogonalLoop=1;jettySize=auto;html=1;entryX=1;entryY=0.5;entryDx=0;entryDy=0;" edge="1" parent="WIyWlLk6GJQsqaUBKTNV-1" source="WIyWlLk6GJQsqaUBKTNV-7" target="WIyWlLk6GJQsqaUBKTNV-12">
          <mxGeometry relative="1" as="geometry" />
        </mxCell>
        <mxCell id="WIyWlLk6GJQsqaUBKTNV-7" value="Set Status = C" style="rounded=1;whiteSpace=wrap;html=1;fontSize=12;glass=0;strokeWidth=1;shadow=0;" parent="WIyWlLk6GJQsqaUBKTNV-1" vertex="1">
          <mxGeometry x="223" y="270" width="120" height="40" as="geometry" />
        </mxCell>
        <mxCell id="qCqNb9l00TlPPFiWLqJM-23" style="edgeStyle=orthogonalEdgeStyle;rounded=0;orthogonalLoop=1;jettySize=auto;html=1;entryX=0.5;entryY=0;entryDx=0;entryDy=0;" edge="1" parent="WIyWlLk6GJQsqaUBKTNV-1" source="WIyWlLk6GJQsqaUBKTNV-11" target="qCqNb9l00TlPPFiWLqJM-22">
          <mxGeometry relative="1" as="geometry" />
        </mxCell>
        <mxCell id="WIyWlLk6GJQsqaUBKTNV-11" value="Push Queue notify Grab" style="rounded=1;whiteSpace=wrap;html=1;fontSize=12;glass=0;strokeWidth=1;shadow=0;" parent="WIyWlLk6GJQsqaUBKTNV-1" vertex="1">
          <mxGeometry x="63" y="410" width="120" height="40" as="geometry" />
        </mxCell>
        <mxCell id="IoE8y3-S_RY7D_MhDuB5-1" style="edgeStyle=orthogonalEdgeStyle;rounded=0;orthogonalLoop=1;jettySize=auto;html=1;entryX=0.5;entryY=0;entryDx=0;entryDy=0;" edge="1" parent="WIyWlLk6GJQsqaUBKTNV-1" source="WIyWlLk6GJQsqaUBKTNV-12" target="IoE8y3-S_RY7D_MhDuB5-0">
          <mxGeometry relative="1" as="geometry" />
        </mxCell>
        <mxCell id="WIyWlLk6GJQsqaUBKTNV-12" value="Insert CSI_REG_LIST Status = T" style="rounded=1;whiteSpace=wrap;html=1;fontSize=12;glass=0;strokeWidth=1;shadow=0;" parent="WIyWlLk6GJQsqaUBKTNV-1" vertex="1">
          <mxGeometry x="63" y="270" width="120" height="40" as="geometry" />
        </mxCell>
        <mxCell id="qCqNb9l00TlPPFiWLqJM-2" style="edgeStyle=orthogonalEdgeStyle;rounded=0;orthogonalLoop=1;jettySize=auto;html=1;entryX=0.5;entryY=0;entryDx=0;entryDy=0;" edge="1" parent="WIyWlLk6GJQsqaUBKTNV-1" source="qCqNb9l00TlPPFiWLqJM-0" target="WIyWlLk6GJQsqaUBKTNV-3">
          <mxGeometry relative="1" as="geometry" />
        </mxCell>
        <mxCell id="qCqNb9l00TlPPFiWLqJM-0" value="" style="ellipse;shape=doubleEllipse;html=1;dashed=0;whiteSpace=wrap;aspect=fixed;" vertex="1" parent="WIyWlLk6GJQsqaUBKTNV-1">
          <mxGeometry x="103" width="40" height="40" as="geometry" />
        </mxCell>
        <mxCell id="qCqNb9l00TlPPFiWLqJM-1" value="" style="shape=ellipse;html=1;dashed=0;whiteSpace=wrap;aspect=fixed;strokeWidth=5;perimeter=ellipsePerimeter;" vertex="1" parent="WIyWlLk6GJQsqaUBKTNV-1">
          <mxGeometry x="93" y="555" width="60" height="60" as="geometry" />
        </mxCell>
        <mxCell id="qCqNb9l00TlPPFiWLqJM-11" style="edgeStyle=orthogonalEdgeStyle;rounded=0;orthogonalLoop=1;jettySize=auto;html=1;exitX=0.5;exitY=1;exitDx=0;exitDy=0;entryX=0.5;entryY=0;entryDx=0;entryDy=0;" edge="1" parent="WIyWlLk6GJQsqaUBKTNV-1" source="qCqNb9l00TlPPFiWLqJM-9" target="WIyWlLk6GJQsqaUBKTNV-7">
          <mxGeometry relative="1" as="geometry" />
        </mxCell>
        <mxCell id="qCqNb9l00TlPPFiWLqJM-15" value="No" style="edgeLabel;html=1;align=center;verticalAlign=middle;resizable=0;points=[];" vertex="1" connectable="0" parent="qCqNb9l00TlPPFiWLqJM-11">
          <mxGeometry x="-0.1952" y="-1" relative="1" as="geometry">
            <mxPoint as="offset" />
          </mxGeometry>
        </mxCell>
        <mxCell id="qCqNb9l00TlPPFiWLqJM-18" value="Yes" style="edgeLabel;html=1;align=center;verticalAlign=middle;resizable=0;points=[];" vertex="1" connectable="0" parent="qCqNb9l00TlPPFiWLqJM-11">
          <mxGeometry x="-0.2286" y="-1" relative="1" as="geometry">
            <mxPoint as="offset" />
          </mxGeometry>
        </mxCell>
        <mxCell id="qCqNb9l00TlPPFiWLqJM-20" style="edgeStyle=orthogonalEdgeStyle;rounded=0;orthogonalLoop=1;jettySize=auto;html=1;exitX=1;exitY=0.5;exitDx=0;exitDy=0;" edge="1" parent="WIyWlLk6GJQsqaUBKTNV-1" source="qCqNb9l00TlPPFiWLqJM-9">
          <mxGeometry relative="1" as="geometry">
            <mxPoint x="353" y="330" as="targetPoint" />
          </mxGeometry>
        </mxCell>
        <mxCell id="qCqNb9l00TlPPFiWLqJM-9" value="Status = T" style="rhombus;whiteSpace=wrap;html=1;shadow=0;fontFamily=Helvetica;fontSize=12;align=center;strokeWidth=1;spacing=6;spacingTop=-4;" vertex="1" parent="WIyWlLk6GJQsqaUBKTNV-1">
          <mxGeometry x="233" y="175" width="100" height="55" as="geometry" />
        </mxCell>
        <mxCell id="qCqNb9l00TlPPFiWLqJM-25" style="edgeStyle=orthogonalEdgeStyle;rounded=0;orthogonalLoop=1;jettySize=auto;html=1;entryX=1;entryY=0.5;entryDx=0;entryDy=0;exitX=0.5;exitY=1;exitDx=0;exitDy=0;" edge="1" parent="WIyWlLk6GJQsqaUBKTNV-1" source="qCqNb9l00TlPPFiWLqJM-21" target="qCqNb9l00TlPPFiWLqJM-1">
          <mxGeometry relative="1" as="geometry">
            <mxPoint x="353" y="580" as="targetPoint" />
          </mxGeometry>
        </mxCell>
        <mxCell id="qCqNb9l00TlPPFiWLqJM-21" value="Tao thong bao KH da ton tai Combo" style="rounded=1;whiteSpace=wrap;html=1;fontSize=12;glass=0;strokeWidth=1;shadow=0;" vertex="1" parent="WIyWlLk6GJQsqaUBKTNV-1">
          <mxGeometry x="293" y="330" width="120" height="40" as="geometry" />
        </mxCell>
        <mxCell id="qCqNb9l00TlPPFiWLqJM-24" style="edgeStyle=orthogonalEdgeStyle;rounded=0;orthogonalLoop=1;jettySize=auto;html=1;entryX=0.5;entryY=0;entryDx=0;entryDy=0;" edge="1" parent="WIyWlLk6GJQsqaUBKTNV-1" source="qCqNb9l00TlPPFiWLqJM-22" target="qCqNb9l00TlPPFiWLqJM-1">
          <mxGeometry relative="1" as="geometry" />
        </mxCell>
        <mxCell id="qCqNb9l00TlPPFiWLqJM-22" value="Thong bao thanh cong" style="rounded=1;whiteSpace=wrap;html=1;fontSize=12;glass=0;strokeWidth=1;shadow=0;" vertex="1" parent="WIyWlLk6GJQsqaUBKTNV-1">
          <mxGeometry x="63" y="480" width="120" height="40" as="geometry" />
        </mxCell>
        <mxCell id="IoE8y3-S_RY7D_MhDuB5-2" style="edgeStyle=orthogonalEdgeStyle;rounded=0;orthogonalLoop=1;jettySize=auto;html=1;entryX=0.5;entryY=0;entryDx=0;entryDy=0;" edge="1" parent="WIyWlLk6GJQsqaUBKTNV-1" source="IoE8y3-S_RY7D_MhDuB5-0" target="WIyWlLk6GJQsqaUBKTNV-11">
          <mxGeometry relative="1" as="geometry" />
        </mxCell>
        <mxCell id="IoE8y3-S_RY7D_MhDuB5-0" value="Save DB CIS_NOTIFICATION" style="rounded=1;whiteSpace=wrap;html=1;fontSize=12;glass=0;strokeWidth=1;shadow=0;" vertex="1" parent="WIyWlLk6GJQsqaUBKTNV-1">
          <mxGeometry x="63" y="340" width="120" height="40" as="geometry" />
        </mxCell>
      </root>
    </mxGraphModel>
  </diagram>
  <diagram id="1tDEJoFfoG2jvra8WWks" name="Deduct">
    <mxGraphModel dx="1773" dy="572" grid="1" gridSize="10" guides="1" tooltips="1" connect="1" arrows="1" fold="1" page="1" pageScale="1" pageWidth="827" pageHeight="1169" math="0" shadow="0">
      <root>
        <mxCell id="0" />
        <mxCell id="1" parent="0" />
        <mxCell id="g2iib9to81qVl1VP5mM1-27" value="" style="edgeStyle=orthogonalEdgeStyle;rounded=0;orthogonalLoop=1;jettySize=auto;html=1;" edge="1" parent="1" source="g2iib9to81qVl1VP5mM1-2" target="g2iib9to81qVl1VP5mM1-26">
          <mxGeometry relative="1" as="geometry" />
        </mxCell>
        <mxCell id="g2iib9to81qVl1VP5mM1-2" value="Nhan du lieu tu API" style="rounded=1;whiteSpace=wrap;html=1;fontSize=12;glass=0;strokeWidth=1;shadow=0;" vertex="1" parent="1">
          <mxGeometry x="354" y="80" width="120" height="40" as="geometry" />
        </mxCell>
        <mxCell id="g2iib9to81qVl1VP5mM1-14" style="edgeStyle=orthogonalEdgeStyle;rounded=0;orthogonalLoop=1;jettySize=auto;html=1;entryX=0.5;entryY=0;entryDx=0;entryDy=0;" edge="1" parent="1" source="g2iib9to81qVl1VP5mM1-15" target="g2iib9to81qVl1VP5mM1-2">
          <mxGeometry relative="1" as="geometry" />
        </mxCell>
        <mxCell id="g2iib9to81qVl1VP5mM1-15" value="" style="ellipse;shape=doubleEllipse;html=1;dashed=0;whiteSpace=wrap;aspect=fixed;" vertex="1" parent="1">
          <mxGeometry x="394" width="40" height="40" as="geometry" />
        </mxCell>
        <mxCell id="g2iib9to81qVl1VP5mM1-29" value="" style="edgeStyle=orthogonalEdgeStyle;rounded=0;orthogonalLoop=1;jettySize=auto;html=1;" edge="1" parent="1" source="g2iib9to81qVl1VP5mM1-26" target="g2iib9to81qVl1VP5mM1-28">
          <mxGeometry relative="1" as="geometry" />
        </mxCell>
        <mxCell id="g2iib9to81qVl1VP5mM1-26" value="Lay Combo theo Provider_customer" style="rounded=1;whiteSpace=wrap;html=1;fontSize=12;glass=0;strokeWidth=1;shadow=0;" vertex="1" parent="1">
          <mxGeometry x="354" y="150" width="120" height="40" as="geometry" />
        </mxCell>
        <mxCell id="g2iib9to81qVl1VP5mM1-33" value="" style="edgeStyle=orthogonalEdgeStyle;rounded=0;orthogonalLoop=1;jettySize=auto;html=1;" edge="1" parent="1" source="g2iib9to81qVl1VP5mM1-28" target="g2iib9to81qVl1VP5mM1-32">
          <mxGeometry relative="1" as="geometry" />
        </mxCell>
        <mxCell id="g2iib9to81qVl1VP5mM1-36" value="Yes" style="edgeLabel;html=1;align=center;verticalAlign=middle;resizable=0;points=[];" vertex="1" connectable="0" parent="g2iib9to81qVl1VP5mM1-33">
          <mxGeometry x="0.261" relative="1" as="geometry">
            <mxPoint as="offset" />
          </mxGeometry>
        </mxCell>
        <mxCell id="g2iib9to81qVl1VP5mM1-60" value="" style="edgeStyle=orthogonalEdgeStyle;rounded=0;orthogonalLoop=1;jettySize=auto;html=1;" edge="1" parent="1" source="g2iib9to81qVl1VP5mM1-28" target="g2iib9to81qVl1VP5mM1-59">
          <mxGeometry relative="1" as="geometry" />
        </mxCell>
        <mxCell id="g2iib9to81qVl1VP5mM1-28" value="Row = 0" style="rhombus;whiteSpace=wrap;html=1;rounded=1;glass=0;strokeWidth=1;shadow=0;" vertex="1" parent="1">
          <mxGeometry x="351" y="250" width="126" height="50" as="geometry" />
        </mxCell>
        <mxCell id="g2iib9to81qVl1VP5mM1-35" style="edgeStyle=orthogonalEdgeStyle;rounded=0;orthogonalLoop=1;jettySize=auto;html=1;entryX=1;entryY=0.5;entryDx=0;entryDy=0;" edge="1" parent="1" source="g2iib9to81qVl1VP5mM1-32" target="g2iib9to81qVl1VP5mM1-34">
          <mxGeometry relative="1" as="geometry" />
        </mxCell>
        <mxCell id="g2iib9to81qVl1VP5mM1-32" value="Tao messa thong bao KH khong ton tai" style="whiteSpace=wrap;html=1;rounded=1;glass=0;strokeWidth=1;shadow=0;" vertex="1" parent="1">
          <mxGeometry x="148" y="245" width="120" height="60" as="geometry" />
        </mxCell>
        <mxCell id="g2iib9to81qVl1VP5mM1-34" value="" style="shape=ellipse;html=1;dashed=0;whiteSpace=wrap;aspect=fixed;strokeWidth=5;perimeter=ellipsePerimeter;" vertex="1" parent="1">
          <mxGeometry x="50" y="260" width="30" height="30" as="geometry" />
        </mxCell>
        <mxCell id="g2iib9to81qVl1VP5mM1-40" value="" style="edgeStyle=orthogonalEdgeStyle;rounded=0;orthogonalLoop=1;jettySize=auto;html=1;" edge="1" parent="1" source="g2iib9to81qVl1VP5mM1-37" target="g2iib9to81qVl1VP5mM1-39">
          <mxGeometry relative="1" as="geometry" />
        </mxCell>
        <mxCell id="g2iib9to81qVl1VP5mM1-41" value="Yes" style="edgeLabel;html=1;align=center;verticalAlign=middle;resizable=0;points=[];" vertex="1" connectable="0" parent="g2iib9to81qVl1VP5mM1-40">
          <mxGeometry x="-0.1083" y="1" relative="1" as="geometry">
            <mxPoint as="offset" />
          </mxGeometry>
        </mxCell>
        <mxCell id="g2iib9to81qVl1VP5mM1-54" value="No" style="edgeStyle=orthogonalEdgeStyle;rounded=0;orthogonalLoop=1;jettySize=auto;html=1;" edge="1" parent="1" source="g2iib9to81qVl1VP5mM1-37" target="g2iib9to81qVl1VP5mM1-53">
          <mxGeometry relative="1" as="geometry" />
        </mxCell>
        <mxCell id="g2iib9to81qVl1VP5mM1-37" value="Status = T" style="rhombus;whiteSpace=wrap;html=1;rounded=1;glass=0;strokeWidth=1;shadow=0;" vertex="1" parent="1">
          <mxGeometry x="351" y="502" width="126" height="50" as="geometry" />
        </mxCell>
        <mxCell id="g2iib9to81qVl1VP5mM1-43" value="No" style="edgeStyle=orthogonalEdgeStyle;rounded=0;orthogonalLoop=1;jettySize=auto;html=1;" edge="1" parent="1" source="g2iib9to81qVl1VP5mM1-39" target="g2iib9to81qVl1VP5mM1-42">
          <mxGeometry relative="1" as="geometry" />
        </mxCell>
        <mxCell id="g2iib9to81qVl1VP5mM1-47" value="Yes" style="edgeStyle=orthogonalEdgeStyle;rounded=0;orthogonalLoop=1;jettySize=auto;html=1;" edge="1" parent="1" source="g2iib9to81qVl1VP5mM1-39" target="g2iib9to81qVl1VP5mM1-46">
          <mxGeometry relative="1" as="geometry" />
        </mxCell>
        <mxCell id="g2iib9to81qVl1VP5mM1-39" value="Status tru tien Grab = true" style="rhombus;whiteSpace=wrap;html=1;rounded=1;glass=0;strokeWidth=1;shadow=0;" vertex="1" parent="1">
          <mxGeometry x="120" y="487" width="151" height="80" as="geometry" />
        </mxCell>
        <mxCell id="g2iib9to81qVl1VP5mM1-42" value="Set Status = C" style="whiteSpace=wrap;html=1;rounded=1;glass=0;strokeWidth=1;shadow=0;" vertex="1" parent="1">
          <mxGeometry x="-80" y="497" width="120" height="60" as="geometry" />
        </mxCell>
        <mxCell id="g2iib9to81qVl1VP5mM1-56" style="edgeStyle=orthogonalEdgeStyle;rounded=0;orthogonalLoop=1;jettySize=auto;html=1;exitX=1;exitY=0.5;exitDx=0;exitDy=0;" edge="1" parent="1" source="g2iib9to81qVl1VP5mM1-46" target="g2iib9to81qVl1VP5mM1-52">
          <mxGeometry relative="1" as="geometry" />
        </mxCell>
        <mxCell id="g2iib9to81qVl1VP5mM1-46" value="Call VBI tao don BH" style="whiteSpace=wrap;html=1;rounded=1;glass=0;strokeWidth=1;shadow=0;" vertex="1" parent="1">
          <mxGeometry x="135.5" y="622" width="120" height="60" as="geometry" />
        </mxCell>
        <mxCell id="g2iib9to81qVl1VP5mM1-67" style="edgeStyle=orthogonalEdgeStyle;rounded=0;orthogonalLoop=1;jettySize=auto;html=1;entryX=0;entryY=0.5;entryDx=0;entryDy=0;" edge="1" parent="1" source="g2iib9to81qVl1VP5mM1-52" target="g2iib9to81qVl1VP5mM1-53">
          <mxGeometry relative="1" as="geometry" />
        </mxCell>
        <mxCell id="g2iib9to81qVl1VP5mM1-52" value="Create Saving" style="whiteSpace=wrap;html=1;rounded=1;glass=0;strokeWidth=1;shadow=0;" vertex="1" parent="1">
          <mxGeometry x="300" y="622" width="120" height="60" as="geometry" />
        </mxCell>
        <mxCell id="g2iib9to81qVl1VP5mM1-58" value="" style="edgeStyle=orthogonalEdgeStyle;rounded=0;orthogonalLoop=1;jettySize=auto;html=1;entryX=0;entryY=0.5;entryDx=0;entryDy=0;" edge="1" parent="1" source="g2iib9to81qVl1VP5mM1-53" target="g2iib9to81qVl1VP5mM1-57">
          <mxGeometry relative="1" as="geometry" />
        </mxCell>
        <mxCell id="g2iib9to81qVl1VP5mM1-66" value="" style="edgeStyle=orthogonalEdgeStyle;rounded=0;orthogonalLoop=1;jettySize=auto;html=1;entryX=1;entryY=0.5;entryDx=0;entryDy=0;" edge="1" parent="1" source="g2iib9to81qVl1VP5mM1-53" target="g2iib9to81qVl1VP5mM1-65">
          <mxGeometry relative="1" as="geometry" />
        </mxCell>
        <mxCell id="AdzqccviTOZWXxdL-i4F-6" value="" style="edgeStyle=orthogonalEdgeStyle;rounded=0;orthogonalLoop=1;jettySize=auto;html=1;entryX=0.5;entryY=0;entryDx=0;entryDy=0;" edge="1" parent="1" source="g2iib9to81qVl1VP5mM1-53" target="AdzqccviTOZWXxdL-i4F-8">
          <mxGeometry relative="1" as="geometry">
            <mxPoint x="534" y="860" as="targetPoint" />
          </mxGeometry>
        </mxCell>
        <mxCell id="g2iib9to81qVl1VP5mM1-53" value="xfer grab account sang dda customer" style="whiteSpace=wrap;html=1;rounded=1;glass=0;strokeWidth=1;shadow=0;" vertex="1" parent="1">
          <mxGeometry x="474" y="622" width="120" height="60" as="geometry" />
        </mxCell>
        <mxCell id="AdzqccviTOZWXxdL-i4F-14" style="edgeStyle=orthogonalEdgeStyle;rounded=0;orthogonalLoop=1;jettySize=auto;html=1;entryX=0;entryY=0.5;entryDx=0;entryDy=0;" edge="1" parent="1" source="g2iib9to81qVl1VP5mM1-57" target="AdzqccviTOZWXxdL-i4F-13">
          <mxGeometry relative="1" as="geometry" />
        </mxCell>
        <mxCell id="g2iib9to81qVl1VP5mM1-57" value="Pay Fee Ins" style="whiteSpace=wrap;html=1;rounded=1;glass=0;strokeWidth=1;shadow=0;" vertex="1" parent="1">
          <mxGeometry x="594" y="760" width="120" height="60" as="geometry" />
        </mxCell>
        <mxCell id="g2iib9to81qVl1VP5mM1-61" style="edgeStyle=orthogonalEdgeStyle;rounded=0;orthogonalLoop=1;jettySize=auto;html=1;" edge="1" parent="1" source="g2iib9to81qVl1VP5mM1-59">
          <mxGeometry relative="1" as="geometry">
            <mxPoint x="413" y="500" as="targetPoint" />
          </mxGeometry>
        </mxCell>
        <mxCell id="g2iib9to81qVl1VP5mM1-63" value="" style="edgeStyle=orthogonalEdgeStyle;rounded=0;orthogonalLoop=1;jettySize=auto;html=1;" edge="1" parent="1" source="g2iib9to81qVl1VP5mM1-59" target="g2iib9to81qVl1VP5mM1-62">
          <mxGeometry relative="1" as="geometry" />
        </mxCell>
        <mxCell id="g2iib9to81qVl1VP5mM1-59" value="Inset DB CIS_Transaction" style="whiteSpace=wrap;html=1;rounded=1;glass=0;strokeWidth=1;shadow=0;" vertex="1" parent="1">
          <mxGeometry x="354" y="350" width="120" height="60" as="geometry" />
        </mxCell>
        <mxCell id="g2iib9to81qVl1VP5mM1-62" value="Tao message ghi nhan thong tin grab thanh cong" style="whiteSpace=wrap;html=1;rounded=1;glass=0;strokeWidth=1;shadow=0;" vertex="1" parent="1">
          <mxGeometry x="153" y="350" width="120" height="60" as="geometry" />
        </mxCell>
        <mxCell id="g2iib9to81qVl1VP5mM1-64" style="edgeStyle=orthogonalEdgeStyle;rounded=0;orthogonalLoop=1;jettySize=auto;html=1;entryX=0.495;entryY=1.152;entryDx=0;entryDy=0;entryPerimeter=0;" edge="1" parent="1" source="g2iib9to81qVl1VP5mM1-62" target="g2iib9to81qVl1VP5mM1-34">
          <mxGeometry relative="1" as="geometry" />
        </mxCell>
        <mxCell id="AdzqccviTOZWXxdL-i4F-4" style="edgeStyle=orthogonalEdgeStyle;rounded=0;orthogonalLoop=1;jettySize=auto;html=1;entryX=1;entryY=0.5;entryDx=0;entryDy=0;" edge="1" parent="1" source="g2iib9to81qVl1VP5mM1-65" target="AdzqccviTOZWXxdL-i4F-3">
          <mxGeometry relative="1" as="geometry" />
        </mxCell>
        <mxCell id="g2iib9to81qVl1VP5mM1-65" value="Deposit to Saving" style="whiteSpace=wrap;html=1;rounded=1;glass=0;strokeWidth=1;shadow=0;" vertex="1" parent="1">
          <mxGeometry x="357" y="760" width="120" height="60" as="geometry" />
        </mxCell>
        <mxCell id="AdzqccviTOZWXxdL-i4F-1" value="Push Queue notify Grab" style="rounded=1;whiteSpace=wrap;html=1;fontSize=12;glass=0;strokeWidth=1;shadow=0;" vertex="1" parent="1">
          <mxGeometry x="20" y="770" width="120" height="40" as="geometry" />
        </mxCell>
        <mxCell id="AdzqccviTOZWXxdL-i4F-2" style="edgeStyle=orthogonalEdgeStyle;rounded=0;orthogonalLoop=1;jettySize=auto;html=1;entryX=1;entryY=0.5;entryDx=0;entryDy=0;" edge="1" parent="1" source="AdzqccviTOZWXxdL-i4F-3" target="AdzqccviTOZWXxdL-i4F-1">
          <mxGeometry relative="1" as="geometry" />
        </mxCell>
        <mxCell id="AdzqccviTOZWXxdL-i4F-3" value="Save DB CIS_NOTIFICATION notify Grab" style="rounded=1;whiteSpace=wrap;html=1;fontSize=12;glass=0;strokeWidth=1;shadow=0;" vertex="1" parent="1">
          <mxGeometry x="190" y="770" width="120" height="40" as="geometry" />
        </mxCell>
        <mxCell id="AdzqccviTOZWXxdL-i4F-7" value="Push Queue notify Ipay" style="rounded=1;whiteSpace=wrap;html=1;fontSize=12;glass=0;strokeWidth=1;shadow=0;" vertex="1" parent="1">
          <mxGeometry x="314" y="860" width="120" height="40" as="geometry" />
        </mxCell>
        <mxCell id="AdzqccviTOZWXxdL-i4F-9" style="edgeStyle=orthogonalEdgeStyle;rounded=0;orthogonalLoop=1;jettySize=auto;html=1;entryX=1;entryY=0.5;entryDx=0;entryDy=0;" edge="1" parent="1" source="AdzqccviTOZWXxdL-i4F-8" target="AdzqccviTOZWXxdL-i4F-7">
          <mxGeometry relative="1" as="geometry" />
        </mxCell>
        <mxCell id="AdzqccviTOZWXxdL-i4F-8" value="Save DB CIS_NOTIFICATION notify Ipay" style="rounded=1;whiteSpace=wrap;html=1;fontSize=12;glass=0;strokeWidth=1;shadow=0;" vertex="1" parent="1">
          <mxGeometry x="474" y="860" width="120" height="40" as="geometry" />
        </mxCell>
        <mxCell id="AdzqccviTOZWXxdL-i4F-12" value="Push Queue notify Ipay" style="rounded=1;whiteSpace=wrap;html=1;fontSize=12;glass=0;strokeWidth=1;shadow=0;" vertex="1" parent="1">
          <mxGeometry x="750" y="860" width="120" height="40" as="geometry" />
        </mxCell>
        <mxCell id="AdzqccviTOZWXxdL-i4F-15" style="edgeStyle=orthogonalEdgeStyle;rounded=0;orthogonalLoop=1;jettySize=auto;html=1;entryX=0.5;entryY=0;entryDx=0;entryDy=0;" edge="1" parent="1" source="AdzqccviTOZWXxdL-i4F-13" target="AdzqccviTOZWXxdL-i4F-12">
          <mxGeometry relative="1" as="geometry" />
        </mxCell>
        <mxCell id="AdzqccviTOZWXxdL-i4F-13" value="Save DB CIS_NOTIFICATION notify VBI" style="rounded=1;whiteSpace=wrap;html=1;fontSize=12;glass=0;strokeWidth=1;shadow=0;" vertex="1" parent="1">
          <mxGeometry x="750" y="770" width="120" height="40" as="geometry" />
        </mxCell>
      </root>
    </mxGraphModel>
  </diagram>
</mxfile>
